<svg width="50" height="50" viewBox="0 0 50 50" fill="none" xmlns="http://www.w3.org/2000/svg">
<rect x="5" y="13.213" width="6.30137" height="23.574" fill="#75EEFF"/>
<rect x="38.6986" y="13.213" width="6.30137" height="23.574" fill="#10B0C7"/>
<path d="M25 41.4734L25 49L5 36.929L5 29.4024L25 41.4734Z" fill="#10B0C7"/>
<path d="M25 41.4734L25 49L45 36.929L45 29.4024L25 41.4734Z" fill="#75EEFF"/>
<path d="M25 8.52663V1L5 13.071V20.5976L25 8.52663Z" fill="#10B0C7"/>
<path d="M25 8.52663V1L45 13.071V20.5976L25 8.52663Z" fill="#75EEFF"/>
<path d="M18.6986 18.6095H31.0274V22.0178H22.5919V25.4261H18.6986V18.6095Z" fill="#10B0C7"/>
<path d="M31.0275 32.2426L18.6987 32.2426L18.6987 28.8343L27.1342 28.8343L27.1342 25.426L31.0275 25.426L31.0275 32.2426Z" fill="#10B0C7"/>
<path d="M23.9042 24.2899H26.096V26.5621H23.9042V24.2899Z" fill="#75EEFF"/>
</svg>
